<?xml version="1.0" encoding="UTF-8"?><svg xmlns="http://www.w3.org/2000/svg" xmlns:xlink="http://www.w3.org/1999/xlink" fill-opacity="1" color-rendering="auto" color-interpolation="auto" stroke="black" text-rendering="auto" stroke-linecap="square" width="748" stroke-miterlimit="10" stroke-opacity="1" shape-rendering="auto" fill="black" stroke-dasharray="none" font-weight="normal" stroke-width="1" height="336" font-family="'Dialog'" font-style="normal" stroke-linejoin="miter" font-size="12" stroke-dashoffset="0" image-rendering="auto">
  <!--Generated by ySVG-->
  <defs id="genericDefs"/>
  <g>
    <defs id="defs1">
      <clipPath clipPathUnits="userSpaceOnUse" id="clipPath1">
        <path d="M0 0 L748 0 L748 336 L0 336 L0 0 Z"/>
      </clipPath>
      <clipPath clipPathUnits="userSpaceOnUse" id="clipPath2">
        <path d="M48 38 L796 38 L796 374 L48 374 L48 38 Z"/>
      </clipPath>
    </defs>
    <g fill="white" transform="matrix(1,0,0,1,-48,-38)" stroke="white">
      <rect x="304" width="143" height="64" y="56" clip-path="url(#clipPath2)" stroke="none"/>
    </g>
    <g font-size="14" stroke-miterlimit="1.45" font-family="'Ubuntu'" transform="matrix(1,0,0,1,-48,-38)" stroke-linecap="butt">
      <text x="316.7072" xml:space="preserve" y="93.201" clip-path="url(#clipPath2)" stroke="none">Declaración jurada</text>
      <rect fill="none" x="304" width="143" height="64" y="56" clip-path="url(#clipPath2)"/>
    </g>
    <g fill="white" transform="matrix(1,0,0,1,-48,-38)" stroke="white">
      <rect x="63.5" y="53.5" clip-path="url(#clipPath2)" width="148" rx="4" ry="4" height="69" stroke="none"/>
    </g>
    <g font-size="14" stroke-miterlimit="1.45" font-family="'Ubuntu'" transform="matrix(1,0,0,1,-48,-38)" stroke-linecap="butt">
      <text x="114.8201" xml:space="preserve" y="93.201" clip-path="url(#clipPath2)" stroke="none">Cliente</text>
      <rect x="63.5" y="53.5" clip-path="url(#clipPath2)" fill="none" width="148" rx="4" ry="4" height="69"/>
    </g>
    <g fill="white" transform="matrix(1,0,0,1,-48,-38)" stroke="white">
      <rect x="304" width="143" height="64" y="171.5" clip-path="url(#clipPath2)" stroke="none"/>
    </g>
    <g font-size="14" stroke-miterlimit="1.45" font-family="'Ubuntu'" transform="matrix(1,0,0,1,-48,-38)" stroke-linecap="butt">
      <text x="337.3152" xml:space="preserve" y="208.701" clip-path="url(#clipPath2)" stroke="none">Movimiento</text>
      <rect fill="none" x="304" width="143" height="64" y="171.5" clip-path="url(#clipPath2)"/>
    </g>
    <g fill="white" transform="matrix(1,0,0,1,-48,-38)" stroke="white">
      <rect x="504" width="143" height="64" y="171.5" clip-path="url(#clipPath2)" stroke="none"/>
    </g>
    <g font-size="14" stroke-miterlimit="1.45" font-family="'Ubuntu'" transform="matrix(1,0,0,1,-48,-38)" stroke-linecap="butt">
      <text x="542.4882" xml:space="preserve" y="208.701" clip-path="url(#clipPath2)" stroke="none">Operación</text>
      <rect fill="none" x="504" width="143" height="64" y="171.5" clip-path="url(#clipPath2)"/>
    </g>
    <g fill="white" transform="matrix(1,0,0,1,-48,-38)" stroke="white">
      <rect x="63.5" y="169" clip-path="url(#clipPath2)" width="148" rx="4" ry="4" height="69" stroke="none"/>
    </g>
    <g font-size="14" stroke-miterlimit="1.45" font-family="'Ubuntu'" transform="matrix(1,0,0,1,-48,-38)" stroke-linecap="butt">
      <text x="104.7191" xml:space="preserve" y="208.701" clip-path="url(#clipPath2)" stroke="none">Recepción</text>
      <rect x="63.5" y="169" clip-path="url(#clipPath2)" fill="none" width="148" rx="4" ry="4" height="69"/>
    </g>
    <g fill="white" transform="matrix(1,0,0,1,-48,-38)" stroke="white">
      <rect x="63.5" y="284.5" clip-path="url(#clipPath2)" width="148" rx="4" ry="4" height="69" stroke="none"/>
    </g>
    <g font-size="14" stroke-miterlimit="1.45" font-family="'Ubuntu'" transform="matrix(1,0,0,1,-48,-38)" stroke-linecap="butt">
      <text x="105.6011" xml:space="preserve" y="324.201" clip-path="url(#clipPath2)" stroke="none">Sectorista</text>
      <rect x="63.5" y="284.5" clip-path="url(#clipPath2)" fill="none" width="148" rx="4" ry="4" height="69"/>
    </g>
    <g fill="white" transform="matrix(1,0,0,1,-48,-38)" stroke="white">
      <ellipse rx="58.5" ry="25.5" clip-path="url(#clipPath2)" cx="428.5" cy="333.5" stroke="none"/>
    </g>
    <g font-size="14" stroke-miterlimit="1.45" font-family="'Ubuntu'" transform="matrix(1,0,0,1,-48,-38)" stroke-linecap="butt">
      <text x="391.3301" xml:space="preserve" y="338.701" clip-path="url(#clipPath2)" stroke="none">Sospechosa</text>
      <ellipse rx="58.5" fill="none" ry="25.5" clip-path="url(#clipPath2)" cx="428.5" cy="333.5"/>
    </g>
    <g fill="white" transform="matrix(1,0,0,1,-48,-38)" stroke="white">
      <ellipse rx="58.5" ry="25.5" clip-path="url(#clipPath2)" cx="722.5" cy="333.5" stroke="none"/>
    </g>
    <g font-size="14" stroke-miterlimit="1.45" font-family="'Ubuntu'" transform="matrix(1,0,0,1,-48,-38)" stroke-linecap="butt">
      <text x="695.5991" xml:space="preserve" y="338.701" clip-path="url(#clipPath2)" stroke="none">Registro</text>
      <ellipse rx="58.5" fill="none" ry="25.5" clip-path="url(#clipPath2)" cx="722.5" cy="333.5"/>
    </g>
    <g fill="white" transform="matrix(1,0,0,1,-48,-38)" stroke="white">
      <ellipse rx="58.5" ry="25.5" clip-path="url(#clipPath2)" cx="575.5" cy="333.5" stroke="none"/>
    </g>
    <g font-size="14" stroke-miterlimit="1.45" font-family="'Ubuntu'" transform="matrix(1,0,0,1,-48,-38)" stroke-linecap="butt">
      <text x="552.8761" xml:space="preserve" y="338.701" clip-path="url(#clipPath2)" stroke="none">Inusual</text>
      <ellipse rx="58.5" fill="none" ry="25.5" clip-path="url(#clipPath2)" cx="575.5" cy="333.5"/>
    </g>
    <g stroke-dasharray="4,3,0,3" stroke-miterlimit="1.45" transform="matrix(1,0,0,1,-48,-38)" stroke-linecap="round">
      <path fill="none" d="M211.4973 88 L296 88" clip-path="url(#clipPath2)"/>
      <path d="M304 88 L292 83 L295 88 L292 93 Z" clip-path="url(#clipPath2)" stroke="none"/>
      <path fill="none" stroke-dasharray="none" d="M375.5 120 L375.5 163.5" clip-path="url(#clipPath2)" stroke-linecap="butt"/>
      <path stroke-dasharray="none" d="M375.5 171.5 L380.5 159.5 L375.5 162.5 L370.5 159.5 Z" clip-path="url(#clipPath2)" stroke-linecap="butt" stroke="none"/>
      <path fill="none" stroke-dasharray="none" d="M447 203.5 L496 203.5" clip-path="url(#clipPath2)" stroke-linecap="butt"/>
      <path stroke-dasharray="none" d="M504 203.5 L492 198.5 L495 203.5 L492 208.5 Z" clip-path="url(#clipPath2)" stroke-linecap="butt" stroke="none"/>
      <path fill="none" stroke-dasharray="none" d="M137.5 122.5123 L137.5 161.0206" clip-path="url(#clipPath2)" stroke-linecap="butt"/>
      <path stroke-dasharray="none" d="M137.5 169.0206 L142.5 157.0206 L137.5 160.0206 L132.5 157.0206 Z" clip-path="url(#clipPath2)" stroke-linecap="butt" stroke="none"/>
      <path fill="none" d="M211.4973 203.5 L296 203.5" clip-path="url(#clipPath2)"/>
      <path d="M304 203.5 L292 198.5 L295 203.5 L292 208.5 Z" clip-path="url(#clipPath2)" stroke="none"/>
      <path fill="none" stroke-dasharray="none" d="M137.5 237.9722 L137.5 276.5222" clip-path="url(#clipPath2)" stroke-linecap="butt"/>
      <path stroke-dasharray="none" d="M137.5 284.5222 L142.5 272.5222 L137.5 275.5222 L132.5 272.5222 Z" clip-path="url(#clipPath2)" stroke-linecap="butt" stroke="none"/>
      <path fill="none" stroke-dasharray="none" d="M539.3154 235.5 L460.3563 305.3278" clip-path="url(#clipPath2)" stroke-linecap="butt"/>
      <path stroke-dasharray="none" d="M454.3635 310.6275 L466.6649 306.4234 L461.1053 304.6653 L460.0403 298.9325 Z" clip-path="url(#clipPath2)" stroke-linecap="butt" stroke="none"/>
      <path fill="none" stroke-dasharray="none" d="M611.6846 235.5 L690.6437 305.3278" clip-path="url(#clipPath2)" stroke-linecap="butt"/>
      <path stroke-dasharray="none" d="M696.6365 310.6275 L690.9597 298.9325 L689.8947 304.6653 L684.335 306.4234 Z" clip-path="url(#clipPath2)" stroke-linecap="butt" stroke="none"/>
      <path fill="none" stroke-dasharray="none" d="M575.5 235.5 L575.5 300" clip-path="url(#clipPath2)" stroke-linecap="butt"/>
      <path stroke-dasharray="none" d="M575.5 308 L580.5 296 L575.5 299 L570.5 296 Z" clip-path="url(#clipPath2)" stroke-linecap="butt" stroke="none"/>
    </g>
  </g>
</svg>
