<?xml version="1.0" encoding="UTF-8"?><svg xmlns="http://www.w3.org/2000/svg" xmlns:xlink="http://www.w3.org/1999/xlink" fill-opacity="1" color-rendering="auto" color-interpolation="auto" stroke="black" text-rendering="auto" stroke-linecap="square" width="666" stroke-miterlimit="10" stroke-opacity="1" shape-rendering="auto" fill="black" stroke-dasharray="none" font-weight="normal" stroke-width="1" height="692" font-family="'Dialog'" font-style="normal" stroke-linejoin="miter" font-size="12" stroke-dashoffset="0" image-rendering="auto">
  <!--Generated by ySVG-->
  <defs id="genericDefs"/>
  <g>
    <defs id="defs1">
      <clipPath clipPathUnits="userSpaceOnUse" id="clipPath1">
        <path d="M0 0 L666 0 L666 692 L0 692 L0 0 Z"/>
      </clipPath>
      <clipPath clipPathUnits="userSpaceOnUse" id="clipPath2">
        <path d="M55 -209 L721 -209 L721 483 L55 483 L55 -209 Z"/>
      </clipPath>
    </defs>
    <g fill="white" transform="matrix(1,0,0,1,-55,209)" stroke="white">
      <rect x="94" width="117.3529" height="60" y="150" clip-path="url(#clipPath2)" stroke="none"/>
    </g>
    <g font-size="14" stroke-miterlimit="1.45" font-family="'Ubuntu'" transform="matrix(1,0,0,1,-55,209)" stroke-linecap="butt">
      <text x="138.1235" xml:space="preserve" y="185.201" clip-path="url(#clipPath2)" stroke="none">User</text>
      <rect fill="none" x="94" width="117.3529" height="60" y="150" clip-path="url(#clipPath2)"/>
    </g>
    <g fill="white" transform="matrix(1,0,0,1,-55,209)" stroke="white">
      <rect x="70" width="165.3529" height="60" y="267" clip-path="url(#clipPath2)" stroke="none"/>
    </g>
    <g font-size="14" stroke-miterlimit="1.45" font-family="'Ubuntu'" transform="matrix(1,0,0,1,-55,209)" stroke-linecap="butt">
      <text x="88.9487" xml:space="preserve" y="302.201" clip-path="url(#clipPath2)" stroke="none">CustomsBrokerUser</text>
      <rect fill="none" x="70" width="165.3529" height="60" y="267" clip-path="url(#clipPath2)"/>
    </g>
    <g fill="white" transform="matrix(1,0,0,1,-55,209)" stroke="white">
      <rect x="88" width="129.3529" height="60" y="408" clip-path="url(#clipPath2)" stroke="none"/>
    </g>
    <g font-size="14" stroke-miterlimit="1.45" font-family="'Ubuntu'" transform="matrix(1,0,0,1,-55,209)" stroke-linecap="butt">
      <text x="103.5017" xml:space="preserve" y="443.201" clip-path="url(#clipPath2)" stroke="none">CustomsBroker</text>
      <rect fill="none" x="88" width="129.3529" height="60" y="408" clip-path="url(#clipPath2)"/>
    </g>
    <g fill="white" transform="matrix(1,0,0,1,-55,209)" stroke="white">
      <rect x="304" width="129.3529" height="60" y="408" clip-path="url(#clipPath2)" stroke="none"/>
    </g>
    <g font-size="14" stroke-miterlimit="1.45" font-family="'Ubuntu'" transform="matrix(1,0,0,1,-55,209)" stroke-linecap="butt">
      <text x="334.2506" xml:space="preserve" y="443.201" clip-path="url(#clipPath2)" stroke="none">Movement</text>
      <rect fill="none" x="304" width="129.3529" height="60" y="408" clip-path="url(#clipPath2)"/>
    </g>
    <g fill="white" transform="matrix(1,0,0,1,-55,209)" stroke="white">
      <rect x="520" width="129.3529" height="60" y="408" clip-path="url(#clipPath2)" stroke="none"/>
    </g>
    <g font-size="14" stroke-miterlimit="1.45" font-family="'Ubuntu'" transform="matrix(1,0,0,1,-55,209)" stroke-linecap="butt">
      <text x="552.1056" xml:space="preserve" y="443.201" clip-path="url(#clipPath2)" stroke="none">Operation</text>
      <rect fill="none" x="520" width="129.3529" height="60" y="408" clip-path="url(#clipPath2)"/>
    </g>
    <g fill="white" transform="matrix(1,0,0,1,-55,209)" stroke="white">
      <rect x="520" width="129.3529" height="60" y="209.5" clip-path="url(#clipPath2)" stroke="none"/>
    </g>
    <g font-size="14" stroke-miterlimit="1.45" font-family="'Ubuntu'" transform="matrix(1,0,0,1,-55,209)" stroke-linecap="butt">
      <text x="540.2966" xml:space="preserve" y="244.701" clip-path="url(#clipPath2)" stroke="none">OperationLog</text>
      <rect fill="none" x="520" width="129.3529" height="60" y="209.5" clip-path="url(#clipPath2)"/>
    </g>
    <g fill="white" transform="matrix(1,0,0,1,-55,209)" stroke="white">
      <rect x="88" y="22" clip-path="url(#clipPath2)" width="129.3529" rx="4" ry="4" height="60" stroke="none"/>
    </g>
    <g font-size="14" stroke-miterlimit="1.45" font-family="'Ubuntu'" transform="matrix(1,0,0,1,-55,209)" stroke-linecap="butt">
      <text x="132.1665" xml:space="preserve" y="49.354" clip-path="url(#clipPath2)" stroke="none">Oficial</text>
      <text x="99.2457" xml:space="preserve" y="65.0479" clip-path="url(#clipPath2)" stroke="none">de cumplimiento</text>
      <rect x="88" y="22" clip-path="url(#clipPath2)" fill="none" width="129.3529" stroke-dasharray="6,2" rx="4" ry="4" height="60"/>
    </g>
    <g fill="white" transform="matrix(1,0,0,1,-55,209)" stroke="white">
      <rect x="88" y="-194" clip-path="url(#clipPath2)" width="129.3529" rx="4" ry="4" height="60" stroke="none"/>
    </g>
    <g font-size="14" stroke-miterlimit="1.45" font-family="'Ubuntu'" transform="matrix(1,0,0,1,-55,209)" stroke-linecap="butt">
      <text x="108.5346" xml:space="preserve" y="-158.799" clip-path="url(#clipPath2)" stroke="none">Recepcionista</text>
      <rect x="88" y="-194" clip-path="url(#clipPath2)" fill="none" width="129.3529" stroke-dasharray="6,2" rx="4" ry="4" height="60"/>
    </g>
    <g fill="white" transform="matrix(1,0,0,1,-55,209)" stroke="white">
      <rect x="88" y="-122" clip-path="url(#clipPath2)" width="129.3529" rx="4" ry="4" height="60" stroke="none"/>
    </g>
    <g font-size="14" stroke-miterlimit="1.45" font-family="'Ubuntu'" transform="matrix(1,0,0,1,-55,209)" stroke-linecap="butt">
      <text x="120.7776" xml:space="preserve" y="-86.799" clip-path="url(#clipPath2)" stroke="none">Sectorista</text>
      <rect x="88" y="-122" clip-path="url(#clipPath2)" fill="none" width="129.3529" stroke-dasharray="6,2" rx="4" ry="4" height="60"/>
    </g>
    <g fill="white" transform="matrix(1,0,0,1,-55,209)" stroke="white">
      <rect x="88" y="-50" clip-path="url(#clipPath2)" width="129.3529" rx="4" ry="4" height="60" stroke="none"/>
    </g>
    <g font-size="14" stroke-miterlimit="1.45" font-family="'Ubuntu'" transform="matrix(1,0,0,1,-55,209)" stroke-linecap="butt">
      <text x="122.5486" xml:space="preserve" y="-14.799" clip-path="url(#clipPath2)" stroke="none">Asistente</text>
      <rect x="88" y="-50" clip-path="url(#clipPath2)" fill="none" width="129.3529" stroke-dasharray="6,2" rx="4" ry="4" height="60"/>
    </g>
    <g fill="white" transform="matrix(1,0,0,1,-55,209)" stroke="white">
      <rect x="576" y="-96" clip-path="url(#clipPath2)" width="129.3529" rx="4" ry="4" height="60" stroke="none"/>
    </g>
    <g font-size="14" stroke-miterlimit="1.45" font-family="'Ubuntu'" transform="matrix(1,0,0,1,-55,209)" stroke-linecap="butt">
      <text x="607.6226" xml:space="preserve" y="-60.799" clip-path="url(#clipPath2)" stroke="none">Suspicious</text>
      <rect x="576" y="-96" clip-path="url(#clipPath2)" fill="none" width="129.3529" stroke-dasharray="6,2" rx="4" ry="4" height="60"/>
    </g>
    <g fill="white" transform="matrix(1,0,0,1,-55,209)" stroke="white">
      <rect x="576" y="-24" clip-path="url(#clipPath2)" width="129.3529" rx="4" ry="4" height="60" stroke="none"/>
    </g>
    <g font-size="14" stroke-miterlimit="1.45" font-family="'Ubuntu'" transform="matrix(1,0,0,1,-55,209)" stroke-linecap="butt">
      <text x="615.1196" xml:space="preserve" y="11.201" clip-path="url(#clipPath2)" stroke="none">Unusual</text>
      <rect x="576" y="-24" clip-path="url(#clipPath2)" fill="none" width="129.3529" stroke-dasharray="6,2" rx="4" ry="4" height="60"/>
    </g>
    <g fill="white" transform="matrix(1,0,0,1,-55,209)" stroke="white">
      <rect x="576" y="48" clip-path="url(#clipPath2)" width="129.3529" rx="4" ry="4" height="60" stroke="none"/>
    </g>
    <g font-size="14" stroke-miterlimit="1.45" font-family="'Ubuntu'" transform="matrix(1,0,0,1,-55,209)" stroke-linecap="butt">
      <text x="613.9926" xml:space="preserve" y="83.201" clip-path="url(#clipPath2)" stroke="none">Register</text>
      <rect x="576" y="48" clip-path="url(#clipPath2)" fill="none" width="129.3529" stroke-dasharray="6,2" rx="4" ry="4" height="60"/>
      <path fill="none" d="M152.6765 267 L152.6765 221" clip-path="url(#clipPath2)"/>
      <path d="M156.6765 259 L148.6765 259 Z" clip-path="url(#clipPath2)" stroke="none"/>
    </g>
    <g transform="matrix(1,0,0,1,-55,209)">
      <path fill="none" d="M156.6765 259 L148.6765 259 Z" clip-path="url(#clipPath2)"/>
      <path d="M152.6765 210 L146.6765 222 L158.6765 222 Z" stroke-miterlimit="1.45" clip-path="url(#clipPath2)" stroke-linecap="butt" stroke="none"/>
      <path fill="none" d="M152.6765 327 L152.6765 408" stroke-miterlimit="1.45" clip-path="url(#clipPath2)" stroke-linecap="butt"/>
      <path fill="none" d="M217.3529 438 L304 438" stroke-miterlimit="1.45" clip-path="url(#clipPath2)" stroke-linecap="butt"/>
      <path fill="none" stroke-dasharray="6,2" d="M433.3529 438 L505 438" stroke-miterlimit="1.45" clip-path="url(#clipPath2)" stroke-linecap="butt"/>
    </g>
    <g fill="white" stroke-dasharray="6,2" stroke-miterlimit="1.45" transform="matrix(1,0,0,1,-55,209)" stroke-linecap="butt" stroke="white">
      <path d="M520 438 L504 432 L504 444 Z" clip-path="url(#clipPath2)" stroke="none"/>
      <path fill="none" stroke-dasharray="none" d="M520 438 L504 432 L504 444 Z" clip-path="url(#clipPath2)" stroke="black"/>
      <path fill="none" d="M584.6765 408 L584.6765 284.5" clip-path="url(#clipPath2)" stroke="black"/>
      <path d="M584.6765 269.5 L578.6765 285.5 L590.6765 285.5 Z" clip-path="url(#clipPath2)" stroke="none"/>
      <path fill="none" stroke-dasharray="none" d="M584.6765 269.5 L578.6765 285.5 L590.6765 285.5 Z" clip-path="url(#clipPath2)" stroke="black"/>
    </g>
  </g>
</svg>
